<svg width="41" height="41" viewBox="0 0 41 41" fill="none" xmlns="http://www.w3.org/2000/svg">
<path d="M13.1147 2.43768L13.1147 4.51032C18.061 4.49991 23.0072 4.5134 27.9532 4.49826C29.0896 4.52834 30.4332 4.40667 31.7302 4.44592C33.8917 4.51135 35.9244 5.02436 36.6502 7.43414C37.0292 14.2059 36.6981 21.0378 36.8091 27.8325C36.581 31.061 37.9886 35.9412 33.9115 37.2921C27.0042 37.7063 20.0264 37.3463 13.0926 37.4672C9.98287 37.3176 5.26927 38.5098 4.02331 34.5695C3.64195 27.6682 3.87794 20.7063 3.84824 13.7708L1.78165 13.7708L1.78165 33.3803C1.78166 36.7857 4.5237 39.5277 7.92912 39.5277L32.7242 39.5277C36.1297 39.5277 38.8717 36.7857 38.8717 33.3803L38.8717 8.58515C38.8717 5.17974 36.1297 2.43768 32.7242 2.43768L13.1147 2.43768Z" fill="#B3B3B3"/>
<path d="M7.08732 2.438L7.08719 7.74033L1.78413 7.74019L1.78225 8.46613L7.08529 8.46627L7.08512 13.7693L7.81108 13.7712L7.81125 8.46818L13.1136 8.46823L13.1154 7.74229L7.81314 7.74224L7.8132 2.43991L7.08732 2.438Z" fill="#CCCCCC"/>
<path opacity="0.47" d="M34.1226 21.0274C34.1226 21.5324 33.922 22.0167 33.5649 22.3738C33.2078 22.7309 32.7235 22.9315 32.2185 22.9315C31.7135 22.9315 31.2292 22.7309 30.8721 22.3738C30.515 22.0167 30.3144 21.5324 30.3144 21.0274C30.3144 20.5224 30.515 20.038 30.8721 19.6809C31.2292 19.3239 31.7135 19.1232 32.2185 19.1232C32.4686 19.1232 32.7162 19.1725 32.9472 19.2682C33.1782 19.3639 33.3881 19.5041 33.5649 19.681C33.7418 19.8578 33.882 20.0677 33.9777 20.2987C34.0734 20.5297 34.1226 20.7773 34.1226 21.0274" fill="#CCCCCC"/>
<path opacity="0.47" d="M31.8835 27.9578C31.8835 28.2078 31.8342 28.4555 31.7385 28.6865C31.6428 28.9175 31.5026 29.1274 31.3257 29.3042C31.1489 29.481 30.939 29.6213 30.708 29.717C30.477 29.8127 30.2294 29.8619 29.9793 29.8619C29.4743 29.8619 28.99 29.6613 28.6329 29.3042C28.2758 28.9471 28.0752 28.4628 28.0752 27.9578C28.0752 27.4528 28.2758 26.9685 28.6329 26.6114C28.99 26.2543 29.4743 26.0537 29.9793 26.0537C30.2294 26.0537 30.477 26.1029 30.708 26.1986C30.939 26.2943 31.1489 26.4346 31.3257 26.6114C31.5026 26.7882 31.6428 26.9981 31.7385 27.2291C31.8342 27.4601 31.8835 27.7077 31.8835 27.9578Z" fill="#CCCCCC"/>
<path opacity="0.47" d="M26.0333 32.2936C26.0333 32.5437 25.984 32.7913 25.8883 33.0223C25.7927 33.2533 25.6524 33.4632 25.4756 33.64C25.2988 33.8169 25.0889 33.9571 24.8578 34.0528C24.6268 34.1485 24.3792 34.1978 24.1291 34.1978C23.6241 34.1978 23.1398 33.9971 22.7827 33.64C22.4256 33.283 22.225 32.7986 22.225 32.2936C22.225 31.7886 22.4256 31.3043 22.7827 30.9472C23.1398 30.5901 23.6241 30.3895 24.1291 30.3895C24.3792 30.3895 24.6268 30.4387 24.8578 30.5344C25.0888 30.6301 25.2988 30.7704 25.4756 30.9472C25.6524 31.124 25.7927 31.3339 25.8883 31.5649C25.984 31.796 26.0333 32.0436 26.0333 32.2936" fill="#CCCCCC"/>
<path opacity="0.47" d="M18.7499 32.4106C18.7499 32.6606 18.7007 32.9082 18.605 33.1392C18.5093 33.3703 18.369 33.5802 18.1922 33.757C18.0154 33.9338 17.8055 34.0741 17.5745 34.1697C17.3434 34.2654 17.0958 34.3147 16.8458 34.3147C16.3408 34.3147 15.8564 34.1141 15.4993 33.757C15.1423 33.3999 14.9416 32.9156 14.9416 32.4106C14.9416 31.9056 15.1423 31.4212 15.4994 31.0641C15.8564 30.707 16.3408 30.5064 16.8458 30.5064C17.0958 30.5064 17.3434 30.5557 17.5745 30.6514C17.8055 30.7471 18.0154 30.8873 18.1922 31.0641C18.369 31.2409 18.5093 31.4509 18.605 31.6819C18.7007 31.9129 18.7499 32.1605 18.7499 32.4106" fill="#CCCCCC"/>
<path opacity="0.47" d="M12.7754 28.2456C12.7754 28.4957 12.7261 28.7433 12.6304 28.9743C12.5348 29.2053 12.3945 29.4153 12.2177 29.5921C12.0409 29.7689 11.8309 29.9091 11.5999 30.0048C11.3689 30.1005 11.1213 30.1498 10.8713 30.1498C10.3662 30.1498 9.88191 29.9492 9.52482 29.5921C9.16772 29.235 8.96712 28.7507 8.96712 28.2456C8.96712 27.7406 9.16773 27.2563 9.52483 26.8992C9.88192 26.5421 10.3662 26.3415 10.8712 26.3415C11.1213 26.3415 11.3689 26.3908 11.5999 26.4864C11.831 26.5821 12.0409 26.7224 12.2177 26.8992C12.3945 27.076 12.5347 27.2859 12.6304 27.517C12.7261 27.748 12.7754 27.9956 12.7754 28.2456" fill="#CCCCCC"/>
<path opacity="0.47" d="M10.339 21.3865C10.339 21.6366 10.2898 21.8842 10.1941 22.1152C10.0984 22.3462 9.95815 22.5561 9.78133 22.7329C9.60452 22.9098 9.39461 23.05 9.16359 23.1457C8.93257 23.2414 8.68497 23.2907 8.43491 23.2907C7.92991 23.2907 7.44557 23.09 7.08848 22.7329C6.73138 22.3759 6.53078 21.8915 6.53078 21.3865C6.53078 20.8815 6.73139 20.3972 7.08849 20.0401C7.44558 19.683 7.9299 19.4824 8.43491 19.4824C8.68496 19.4824 8.93257 19.5316 9.16359 19.6273C9.39462 19.723 9.60452 19.8633 9.78134 20.0401C9.95816 20.2169 10.0984 20.4268 10.1941 20.6578C10.2898 20.8889 10.339 21.1365 10.339 21.3865" fill="#CCCCCC"/>
<path opacity="0.47" d="M12.346 14.3857C12.346 14.8907 12.1454 15.3751 11.7883 15.7321C11.4312 16.0892 10.9469 16.2898 10.4419 16.2898C9.93689 16.2898 9.45258 16.0892 9.09548 15.7321C8.73839 15.375 8.53776 14.8907 8.53776 14.3857C8.53776 13.8807 8.73838 13.3964 9.09547 13.0393C9.45257 12.6822 9.9369 12.4816 10.4419 12.4816C10.692 12.4816 10.9396 12.5308 11.1706 12.6265C11.4016 12.7222 11.6115 12.8625 11.7883 13.0393C11.9651 13.2161 12.1054 13.426 12.2011 13.657C12.2968 13.8881 12.346 14.1357 12.346 14.3857" fill="#CCCCCC"/>
<path opacity="0.47" d="M18.0728 9.88499C18.0728 10.135 18.0235 10.3826 17.9279 10.6137C17.8322 10.8447 17.6919 11.0546 17.5151 11.2314C17.3383 11.4082 17.1284 11.5485 16.8973 11.6442C16.6663 11.7399 16.4187 11.7891 16.1687 11.7891C15.6636 11.7891 15.1793 11.5885 14.8222 11.2314C14.4651 10.8743 14.2645 10.39 14.2645 9.88499C14.2645 9.63493 14.3138 9.38733 14.4095 9.15631C14.5052 8.92529 14.6454 8.71538 14.8222 8.53856C14.999 8.36175 15.209 8.22148 15.44 8.12579C15.671 8.0301 15.9186 7.98085 16.1687 7.98085C16.4187 7.98085 16.6663 8.0301 16.8973 8.12579C17.1284 8.22148 17.3383 8.36174 17.5151 8.53856C17.6919 8.71537 17.8322 8.92528 17.9279 9.1563C18.0235 9.38732 18.0728 9.63494 18.0728 9.88499" fill="#CCCCCC"/>
<path opacity="0.47" d="M25.3457 9.55485C25.3457 9.80491 25.2964 10.0525 25.2007 10.2835C25.105 10.5145 24.9648 10.7245 24.7879 10.9013C24.6111 11.0781 24.4012 11.2184 24.1702 11.314C23.9392 11.4097 23.6916 11.459 23.4415 11.459C22.9365 11.459 22.4522 11.2584 22.0951 10.9013C21.738 10.5442 21.5374 10.0599 21.5374 9.55485C21.5374 9.30479 21.5866 9.05719 21.6823 8.82617C21.778 8.59515 21.9183 8.38524 22.0951 8.20843C22.2719 8.03161 22.4818 7.89134 22.7128 7.79565C22.9439 7.69996 23.1915 7.65071 23.4415 7.65071C23.6916 7.65071 23.9392 7.69996 24.1702 7.79565C24.4012 7.89134 24.6111 8.0316 24.788 8.20842C24.9648 8.38523 25.105 8.59514 25.2007 8.82616C25.2964 9.05718 25.3457 9.3048 25.3457 9.55485" fill="#CCCCCC"/>
<path opacity="0.47" d="M31.453 13.5216C31.453 13.7716 31.4037 14.0193 31.308 14.2503C31.2123 14.4813 31.0721 14.6912 30.8953 14.868C30.7185 15.0448 30.5085 15.1851 30.2775 15.2808C30.0465 15.3765 29.7989 15.4257 29.5488 15.4257C29.0438 15.4257 28.5595 15.2251 28.2024 14.868C27.8453 14.5109 27.6447 14.0266 27.6447 13.5216C27.6447 13.2715 27.6939 13.0239 27.7896 12.7929C27.8853 12.5619 28.0256 12.352 28.2024 12.1752C28.3792 11.9983 28.5891 11.8581 28.8202 11.7624C29.0512 11.6667 29.2988 11.6174 29.5488 11.6174C29.7989 11.6174 30.0465 11.6667 30.2775 11.7624C30.5085 11.8581 30.7185 11.9983 30.8953 12.1752C31.0721 12.352 31.2123 12.5619 31.308 12.7929C31.4037 13.0239 31.453 13.2715 31.453 13.5216" fill="#CCCCCC"/>
</svg>
